<svg width="533" height="359" viewBox="0 0 533 359" fill="none" xmlns="http://www.w3.org/2000/svg">
<path d="M319.982 235.369C319.982 235.369 323.412 207.268 329.154 203.287C334.897 199.307 354.996 199.148 357.708 196.759C360.34 194.371 370.23 168.897 373.341 171.922C376.451 174.947 371.427 205.755 371.427 205.755C371.427 205.755 346.941 224.94 346.063 233.618C345.106 242.215 319.982 235.369 319.982 235.369Z" fill="#FBD7AD"/>
<mask id="mask0_95_868" style="mask-type:luminance" maskUnits="userSpaceOnUse" x="319" y="171" width="56" height="67">
<path d="M319.982 235.369C319.982 235.369 323.412 207.268 329.154 203.287C334.897 199.307 354.996 199.148 357.708 196.759C360.34 194.371 370.23 168.897 373.341 171.922C376.451 174.947 371.427 205.755 371.427 205.755C371.427 205.755 346.941 224.94 346.063 233.618C345.106 242.215 319.982 235.369 319.982 235.369Z" fill="white"/>
</mask>
<g mask="url(#mask0_95_868)">
<path d="M356.91 203.208C356.91 203.208 364.487 200.581 367.199 193.655C369.672 187.366 373.261 171.922 373.261 171.922" stroke="#F27932" stroke-width="1.0762" stroke-linecap="round" stroke-linejoin="round"/>
</g>
<mask id="mask1_95_868" style="mask-type:luminance" maskUnits="userSpaceOnUse" x="319" y="171" width="56" height="67">
<path d="M319.982 235.369C319.982 235.369 323.412 207.268 329.154 203.287C334.897 199.307 354.996 199.148 357.708 196.759C360.34 194.371 370.23 168.897 373.341 171.922C376.451 174.947 371.427 205.755 371.427 205.755C371.427 205.755 346.941 224.94 346.063 233.618C345.106 242.215 319.982 235.369 319.982 235.369Z" fill="white"/>
</mask>
<g mask="url(#mask1_95_868)">
<path d="M360.819 207.109C360.819 207.109 368.396 204.481 371.108 197.556C373.58 191.267 377.169 175.823 377.169 175.823" stroke="#F27932" stroke-width="1.0762" stroke-linecap="round" stroke-linejoin="round"/>
</g>
<path d="M314.479 281.063L296.294 213.477C295.336 208.143 291.987 203.685 287.121 201.217L252.346 195.565L270.053 343.475L306.981 351.038L352.205 316.727L314.479 281.063Z" fill="#B9C6E4"/>
<path d="M208.24 195.167C191.969 190.63 171.71 183.146 169.716 163.881C168.839 155.204 171.87 146.527 178.011 140.318C183.355 134.904 190.773 131.561 194.761 125.033C197.153 121.053 198.111 116.276 199.626 111.818C205.927 94.1455 230.732 89.9263 247.003 91.9165C259.924 93.5882 271.489 102.027 279.465 111.659C299.724 136.337 307.221 200.899 234.481 198.59C225.787 198.351 216.854 197.555 208.24 195.167Z" fill="#ED4F2E"/>
<path d="M211.51 142.786C217.172 148.438 209.356 157.592 205.687 162.21C200.503 168.817 197.153 176.061 199.865 184.739C204.73 199.784 221.24 201.456 234.64 198.192C239.346 197.078 243.892 194.451 246.444 190.231C249.794 184.42 248.518 177.096 246.444 170.568C244.53 164.439 242.137 158.309 237.75 153.453C234.719 149.95 230.652 147.403 226.026 146.368C223.872 145.89 221.958 146.527 219.725 146.209C217.093 145.97 214.062 144.059 211.669 143.104" fill="#CC3D2E"/>
<path d="M255.457 102.823C249.554 100.514 241.818 102.823 239.425 109.112C236.394 116.913 243.971 125.272 239.585 132.835C237.511 136.337 233.523 138.487 229.455 138.248C228.737 138.248 228.578 137.054 229.455 137.054C233.284 137.293 236.953 135.223 238.707 131.879C240.781 127.899 239.345 123.361 238.308 119.381C237.431 115.639 236.873 111.659 238.548 108.077C239.904 105.291 242.296 103.141 245.088 102.027C248.438 100.673 252.346 100.594 255.696 101.867C256.494 101.947 256.175 103.221 255.457 102.823Z" fill="#ED4F2E"/>
<path d="M189.894 81.2491C176.176 77.9056 162.138 86.1848 158.788 100.036C157.432 105.609 157.911 111.341 160.224 116.515C162.298 121.212 166.525 125.67 171.709 125.511C177.532 125.352 181.52 119.859 183.992 114.684C185.827 110.943 187.502 106.723 190.612 103.858C194.201 100.514 199.146 101.071 202.815 98.0463C211.031 91.2797 195.876 82.6821 189.894 81.2491Z" fill="#ED4F2E"/>
<path d="M214.301 96.5338C213.902 93.2699 211.031 90.9613 207.92 91.3593C207.761 91.3593 207.522 91.3593 207.442 91.5185C205.528 92.235 203.933 93.3495 202.736 94.862C200.662 97.0114 198.908 99.32 197.073 101.708C195.957 102.902 195.239 104.495 194.999 106.007C194.84 108.793 197.153 111.102 199.945 111.102C200.184 111.102 200.583 111.102 200.822 111.102" fill="white"/>
<path d="M214.301 96.5338C213.902 93.2699 211.031 90.9613 207.92 91.3593C207.761 91.3593 207.522 91.3593 207.442 91.5185C205.528 92.235 203.933 93.3495 202.736 94.862C200.662 97.0114 198.908 99.32 197.073 101.708C195.957 102.902 195.239 104.495 194.999 106.007C194.84 108.793 197.153 111.102 199.945 111.102C200.184 111.102 200.583 111.102 200.822 111.102" stroke="#F7C689" stroke-width="1.5127" stroke-miterlimit="10"/>
<path d="M197.631 100.434C195.239 101.151 192.686 101.788 190.613 103.698C187.502 106.564 185.747 110.783 183.993 114.525C181.68 119.063 178.33 123.919 173.464 125.113C169.716 123.441 167.163 119.779 166.844 115.719C166.605 111.659 168.2 107.52 171.072 104.654C174.102 101.788 177.851 99.9568 181.839 99.32C187.183 98.6035 192.447 99.4792 197.631 100.434Z" fill="#CC3D2E"/>
<path d="M253.383 102.186C259.684 103.539 265.108 107.281 268.457 112.535C271.967 117.709 273.801 123.998 274.998 130.128C276.354 137.85 276.433 145.651 275.396 153.373C273.961 162.528 262.954 167.464 257.211 164.439L259.126 189.276L274.599 194.132L258.408 236.244L225.467 221.756L214.7 186.251L222.915 185.375L224.989 156.717C225.068 156.796 207.043 93.827 253.383 102.186Z" fill="#FBD7AD"/>
<path d="M228.419 137.133C226.265 135.064 223.713 133.551 221.081 132.437C218.289 131.322 215.179 131.561 212.626 133.312C209.994 135.462 209.117 139.203 210.473 142.308C211.908 145.413 214.939 147.482 218.289 147.721C221.639 147.96 225.069 147.005 227.701 144.855" fill="#FBD7AD"/>
<path d="M258.567 131.879C257.451 128.297 254.5 126.307 250.831 125.75C247.002 125.272 243.253 126.864 240.94 129.969C242.296 132.994 245.886 134.666 249.235 134.905C252.665 135.064 255.935 134.029 258.567 131.879Z" fill="white"/>
<path d="M258.009 131.243C258.009 131.402 257.85 131.402 257.85 131.481C257.371 132.437 253.383 134.506 250.751 132.596C248.917 131.243 247.72 127.023 248.199 125.59C250.273 124.954 252.666 125.989 254.5 127.023C255.298 127.501 258.488 129.889 258.009 131.243Z" fill="#61D248"/>
<path d="M258.089 131.959C257.371 129.81 255.936 127.979 253.862 126.785C252.267 125.909 250.352 125.67 248.678 126.068C247.003 126.307 245.407 126.944 243.972 127.74C242.855 128.377 241.898 129.173 241.34 130.128C241.1 130.606 240.223 130.128 240.462 129.65C241.659 127.581 244.211 126.387 246.365 125.67C249.236 124.556 252.506 124.794 255.058 126.546C256.893 127.899 258.169 129.65 258.887 131.72C259.206 132.357 258.328 132.596 258.089 131.959Z" fill="#4B4065"/>
<path d="M240.94 121.451C242.296 119.54 244.211 118.187 246.524 117.709C248.837 117.232 251.229 117.709 253.303 119.063C248.916 119.938 245.327 120.655 240.94 121.451Z" fill="#ED4F2E"/>
<path d="M253.383 119.54C253.622 119.381 253.862 119.142 253.782 118.903C253.782 118.744 253.622 118.665 253.543 118.505C251.469 117.152 248.837 116.674 246.444 117.152C244.051 117.63 241.977 119.063 240.542 121.132C240.382 121.371 240.382 121.61 240.701 121.849C240.861 122.008 240.941 122.008 241.1 122.008C243.254 121.61 245.327 121.132 247.242 120.814C249.076 120.496 251.23 119.938 253.383 119.54ZM246.364 118.346L246.763 118.187C248.438 117.789 250.272 118.028 251.947 118.824L247.242 119.779L242.376 120.734C243.254 119.54 244.689 118.744 246.364 118.346Z" fill="#ED4F2E"/>
<path d="M219.167 146.925C219.645 142.865 222.197 140.557 224.829 141.751C227.461 142.945 230.173 147.084 231.13 151.622C232.088 156.16 231.29 160.618 229.216 162.687C227.142 164.757 224.112 164.279 221.639 161.732" stroke="white" stroke-width="1.5127" stroke-miterlimit="10"/>
<path d="M264.948 129.889L266.862 131.959C267.341 132.357 267.74 132.914 267.819 133.392C268.059 134.268 267.66 135.223 266.942 135.78C266.304 136.417 265.506 136.895 264.789 137.134" stroke="#4B4065" stroke-width="1.1345" stroke-linecap="round" stroke-linejoin="round"/>
<path d="M269.894 142.547L256.494 144.696C257.93 146.607 259.764 148.199 261.918 149.234C263.992 150.109 266.225 149.95 268.059 148.836C269.894 147.721 270.612 144.617 269.894 142.547Z" stroke="#ED4F2E" stroke-width="1.5127" stroke-linecap="round" stroke-linejoin="round"/>
<path d="M269.096 112.933C269.574 113.809 270.053 114.764 270.451 115.719L266.862 116.834C266.623 116.993 266.384 116.674 266.384 116.436C266.384 116.276 266.384 116.197 266.384 116.038C266.942 114.843 267.899 113.809 269.096 112.933Z" fill="#ED4F2E"/>
<path d="M266.942 117.152C268.298 116.754 269.494 116.435 270.531 116.037C270.69 116.037 270.77 115.878 270.93 115.799C270.93 115.639 270.93 115.56 270.93 115.401C270.531 114.525 270.052 113.57 269.574 112.614C269.414 112.455 269.414 112.375 269.175 112.375C269.015 112.375 268.936 112.375 268.776 112.535C267.58 113.41 266.463 114.604 265.745 115.878C265.506 116.356 265.586 116.833 266.144 117.072C266.463 117.311 266.702 117.311 266.942 117.152ZM269.654 115.321L266.623 116.197C267.261 115.241 267.979 114.366 268.776 113.649C269.175 114.286 269.414 114.764 269.654 115.321Z" fill="#ED4F2E"/>
<path d="M272.605 120.655C273.323 123.202 274.041 125.75 274.519 128.377V128.616C272.844 128.854 271.01 128.377 269.574 127.501C269.654 124.874 270.771 122.486 272.605 120.655Z" fill="white"/>
<path d="M273.163 128.456C272.286 127.501 271.728 126.307 271.728 124.954C271.488 123.6 271.568 122.167 272.206 120.973C272.366 120.973 272.605 120.734 272.685 120.734C273.642 123.282 274.36 125.909 274.758 128.536C274.12 128.695 273.642 128.615 273.163 128.456Z" fill="#61D248"/>
<path d="M272.685 120.894C271.01 122.327 270.053 124.635 270.053 126.944C270.053 127.183 269.814 127.342 269.575 127.342C269.335 127.342 269.176 127.103 269.176 126.944C269.016 124.396 270.133 122.008 272.047 120.336C272.207 120.177 272.526 120.177 272.685 120.336C272.845 120.416 272.845 120.734 272.685 120.894Z" fill="#4B4065"/>
<path opacity="0.3" d="M260.481 165.951L242.296 159.662C242.296 159.662 246.045 176.778 260.96 177.494" fill="#F27932"/>
<path d="M170.114 189.754C184.87 179.246 214.62 186.41 222.995 185.455C260.242 227.806 258.567 231.786 258.567 231.786C258.567 231.786 268.936 200.103 270.292 192.62C283.293 194.053 297.091 198.909 298.287 229.955C298.527 238.155 298.287 271.988 279.225 270.396L283.692 299.691C278.108 304.149 208.399 308.607 208.399 308.607L213.982 295.472L201.539 240.941L163.175 219.607C163.494 210.69 162.537 195.087 170.114 189.754Z" fill="#F9F9F9"/>
<path d="M198.748 299.134L223.793 357.248L176.097 358.999L151.77 289.263L163.734 204.561L202.098 216.9L198.748 299.134Z" fill="#D1D1D1"/>
<path d="M294.3 241.101C299.883 250.255 296.932 262.276 287.759 267.849C285.207 269.441 282.176 270.396 279.225 270.635C280.421 279.551 281.06 290.855 282.256 299.771" stroke="#4B4065" stroke-width="1.5127" stroke-miterlimit="10"/>
<path d="M201.38 241.101L203.214 214.353" stroke="#4B4065" stroke-width="1.5127" stroke-miterlimit="10"/>
<path d="M213.583 119.54C213.185 125.829 215.657 130.845 221.559 132.914C222.277 133.153 223.154 133.392 223.872 133.392C229.455 133.79 234.48 130.287 236.075 124.954C237.431 119.859 235.118 114.366 236.793 109.43C238.229 105.609 241.499 102.664 245.487 101.708C249.475 100.833 253.702 101.31 257.291 103.141C251.628 99.1608 244.769 97.091 237.83 97.2502C233.842 97.2502 229.854 98.3647 226.504 100.355C217.651 105.927 213.982 112.614 213.583 119.54Z" fill="#ED4F2E"/>
<path d="M335.136 118.267C339.101 118.267 342.315 115.059 342.315 111.102C342.315 107.145 339.101 103.937 335.136 103.937C331.172 103.937 327.958 107.145 327.958 111.102C327.958 115.059 331.172 118.267 335.136 118.267Z" fill="#61D248"/>
<path d="M525.92 164.28C528.828 164.28 531.184 161.927 531.184 159.026C531.184 156.124 528.828 153.771 525.92 153.771C523.013 153.771 520.656 156.124 520.656 159.026C520.656 161.927 523.013 164.28 525.92 164.28Z" stroke="#61D248" stroke-width="2" stroke-miterlimit="10"/>
<path d="M116.915 124.317H0.625977V240.384H116.915V124.317Z" fill="#61D248"/>
<path d="M119.068 344.59H383.151C383.151 352.073 377.01 358.203 369.512 358.203H132.707C125.21 358.203 119.068 352.073 119.068 344.59Z" fill="white" stroke="#B9C6E4" stroke-miterlimit="10"/>
<path d="M154.402 222.075H351.567C357.868 222.075 362.972 227.169 362.972 233.458V358.123H142.996V233.458C142.996 227.169 148.101 222.075 154.402 222.075Z" fill="#61D248"/>
<path d="M252.665 302.08C259.801 302.08 265.586 296.306 265.586 289.183C265.586 282.061 259.801 276.287 252.665 276.287C245.529 276.287 239.744 282.061 239.744 289.183C239.744 296.306 245.529 302.08 252.665 302.08Z" fill="white"/>
<path d="M427.338 170.011H490.348C499.6 170.011 507.177 177.494 507.177 186.808V240.145C507.177 249.38 499.679 256.943 490.348 256.943H427.338C418.086 256.943 410.509 249.459 410.509 240.145V186.808C410.509 177.494 418.006 170.011 427.338 170.011Z" fill="white"/>
<path d="M55.1814 209.337L56.0588 189.276L39.1498 200.023L34.125 191.426L51.9113 182.271L34.125 173.116L39.1498 164.519L56.0588 175.504L55.1814 155.443H65.0716L64.1942 175.504L81.1032 164.519L86.128 173.116L68.1822 182.271L86.128 191.426L81.1032 200.023L64.1942 189.197L65.0716 209.258L55.1814 209.337Z" fill="white"/>
<path d="M447.676 238.394L463.15 256.943L449.271 257.261L447.676 238.394Z" fill="#61D248"/>
<path d="M448.394 277.322C449.192 277.72 450.229 277.402 450.627 276.606C450.787 276.367 450.867 276.048 450.787 275.73L449.271 257.341L447.676 238.474C447.597 237.598 446.799 236.882 445.922 237.041C445.682 237.041 445.523 237.12 445.283 237.2L428.694 246.434L412.502 255.43C411.705 255.828 411.386 256.863 411.864 257.659C412.024 257.977 412.263 258.137 412.502 258.296L420.638 262.674L406.521 288.865L426.062 299.294L440.179 272.944L448.394 277.322Z" fill="white" stroke="#61D248" stroke-width="2" stroke-miterlimit="10"/>
<path d="M75.44 73.0497C74.802 58.7204 87.8027 45.2668 102.239 45.3464C116.676 45.426 129.437 59.1184 128.56 73.4477C128.081 81.2493 122.338 89.6876 114.602 89.21C106.945 88.7323 102.399 80.0552 102.319 72.4129C102.159 54.5012 121.142 39.0574 138.689 42.7989" stroke="#61D248" stroke-width="2" stroke-miterlimit="10"/>
<path d="M447.039 198.431V227.727L459.641 219.129L472.163 227.727V198.431H447.039Z" fill="#61D248"/>
<path opacity="0.46" d="M361.457 120.894L379.403 20.5089H459.002L476.151 120.894H361.457Z" fill="#61D248"/>
<path d="M400.619 19.5537C400.379 9.52316 408.435 1.24401 418.405 1.00519C428.455 0.766364 436.75 8.8067 436.989 18.7576C436.989 18.9964 436.989 19.2353 436.989 19.3945" stroke="#231F20" stroke-width="0.8492" stroke-miterlimit="10"/>
<path d="M491.225 153.851H440.578L416.73 129.491V79.4978H491.225V153.851Z" fill="white" stroke="white" stroke-width="0.8492" stroke-miterlimit="10"/>
<path d="M416.73 79.4978L404.128 120.814H416.73" fill="#61D248"/>
<path d="M458.444 102.345L460.199 107.042C460.598 108.157 461.714 109.032 462.99 109.032L468.095 109.271C469.77 109.351 471.126 110.863 471.046 112.535C470.966 113.411 470.567 114.207 469.929 114.844L465.941 118.028C464.984 118.744 464.585 120.018 464.825 121.292L466.181 126.148C466.659 127.74 465.622 129.491 464.027 129.969C463.15 130.208 462.272 130.049 461.555 129.571L457.327 126.785C456.29 126.148 454.935 126.148 453.978 126.785L449.75 129.571C448.315 130.526 446.4 130.128 445.443 128.695C444.965 127.979 444.805 127.023 445.044 126.227L446.4 121.371C446.719 120.177 446.321 118.904 445.284 118.107L441.296 114.923C439.94 113.809 439.701 111.898 440.817 110.545C441.376 109.908 442.253 109.43 443.13 109.43L448.235 109.191C449.431 109.112 450.548 108.316 451.026 107.201L452.781 102.504C453.419 100.912 455.254 100.116 456.849 100.833C457.487 100.992 458.205 101.549 458.444 102.345Z" fill="#F7C689"/>
<path d="M349.573 191.824C329.314 184.022 329.155 143.184 358.267 156.239C367.439 158.229 379.722 168.34 363.93 171.603C342.873 174.708 325.486 142.626 348.775 132.914" stroke="#00AA61" stroke-miterlimit="10" stroke-dasharray="4 4"/>
</svg>
