<svg width="29" height="29" viewBox="0 0 29 29" fill="none" xmlns="http://www.w3.org/2000/svg">
<path d="M26.2167 28.375L16.5042 18.6625C15.7333 19.2792 14.8469 19.7674 13.8448 20.1271C12.8427 20.4868 11.7764 20.6667 10.6458 20.6667C7.84514 20.6667 5.47508 19.6964 3.53567 17.756C1.59625 15.8156 0.626028 13.4455 0.625 10.6458C0.625 7.84514 1.59522 5.47508 3.53567 3.53567C5.47611 1.59625 7.84617 0.626028 10.6458 0.625C13.4465 0.625 15.8166 1.59522 17.756 3.53567C19.6954 5.47611 20.6656 7.84617 20.6667 10.6458C20.6667 11.7764 20.4868 12.8427 20.1271 13.8448C19.7674 14.8469 19.2792 15.7333 18.6625 16.5042L28.375 26.2167L26.2167 28.375ZM10.6458 17.5833C12.5729 17.5833 14.2112 16.9086 15.5607 15.5591C16.9101 14.2097 17.5844 12.5719 17.5833 10.6458C17.5833 8.71875 16.9086 7.08047 15.5591 5.731C14.2097 4.38153 12.5719 3.70731 10.6458 3.70833C8.71875 3.70833 7.08047 4.38307 5.731 5.73254C4.38153 7.08201 3.70731 8.71978 3.70833 10.6458C3.70833 12.5729 4.38307 14.2112 5.73254 15.5607C7.08201 16.9101 8.71978 17.5844 10.6458 17.5833Z" fill="white" fill-opacity="0.8"/>
</svg>
